<?xml version="1.0" encoding="UTF-8" standalone="no"?>
<!-- Created with Inkscape (http://www.inkscape.org/) -->

<svg
   xmlns:dc="http://purl.org/dc/elements/1.1/"
   xmlns:cc="http://creativecommons.org/ns#"
   xmlns:rdf="http://www.w3.org/1999/02/22-rdf-syntax-ns#"
   xmlns:svg="http://www.w3.org/2000/svg"
   xmlns="http://www.w3.org/2000/svg"
   xmlns:sodipodi="http://sodipodi.sourceforge.net/DTD/sodipodi-0.dtd"
   xmlns:inkscape="http://www.inkscape.org/namespaces/inkscape"
   width="166.46823mm"
   height="72.805878mm"
   viewBox="0 0 166.46823 72.805876"
   version="1.1"
   id="svg8"
   inkscape:version="0.92.4 (unknown)"
   sodipodi:docname="comb.svg">
  <defs
     id="defs2" />
  <sodipodi:namedview
     id="base"
     pagecolor="#ffffff"
     bordercolor="#666666"
     borderopacity="1.0"
     inkscape:pageopacity="0.0"
     inkscape:pageshadow="2"
     inkscape:zoom="0.98994949"
     inkscape:cx="626.10652"
     inkscape:cy="199.96456"
     inkscape:document-units="mm"
     inkscape:current-layer="layer2"
     showgrid="false"
     showguides="true"
     inkscape:window-width="1920"
     inkscape:window-height="1016"
     inkscape:window-x="0"
     inkscape:window-y="27"
     inkscape:window-maximized="1"
     fit-margin-top="0"
     fit-margin-left="0"
     fit-margin-right="0"
     fit-margin-bottom="0"
     scale-x="0.9" />
  <metadata
     id="metadata5">
    <rdf:RDF>
      <cc:Work
         rdf:about="">
        <dc:format>image/svg+xml</dc:format>
        <dc:type
           rdf:resource="http://purl.org/dc/dcmitype/StillImage" />
        <dc:title />
      </cc:Work>
    </rdf:RDF>
  </metadata>
  <g
     inkscape:groupmode="layer"
     id="layer2"
     inkscape:label="Layer 2"
     transform="translate(-19.91635,-227.19068)">
    <g
       id="g5104"
       transform="matrix(0.26669051,0.88737324,-0.88737324,0.26669051,207.86816,116.00632)">
      <path
         sodipodi:nodetypes="cccc"
         inkscape:connector-curvature="0"
         id="path4534"
         d="m 125.96056,234.25595 -20.78869,1.70089 20.83594,-2.55134 z"
         style="fill:#1488ff;fill-opacity:1;stroke:#00468e;stroke-width:0.26458332px;stroke-linecap:butt;stroke-linejoin:miter;stroke-opacity:1" />
      <path
         sodipodi:nodetypes="cccc"
         inkscape:connector-curvature="0"
         id="path4534-3"
         d="m 126.1581,232.25739 -20.97768,1.74814 21.02493,-2.59859 z"
         style="fill:#1488ff;fill-opacity:1;stroke:#00468e;stroke-width:0.26458332px;stroke-linecap:butt;stroke-linejoin:miter;stroke-opacity:1" />
      <path
         sodipodi:nodetypes="cccc"
         inkscape:connector-curvature="0"
         id="path4534-6"
         d="m 126.44158,230.32026 -21.26116,1.70089 21.30841,-2.55134 z"
         style="fill:#1488ff;fill-opacity:1;stroke:#00468e;stroke-width:0.26458332px;stroke-linecap:butt;stroke-linejoin:miter;stroke-opacity:1" />
      <path
         sodipodi:nodetypes="cccc"
         inkscape:connector-curvature="0"
         id="path4534-7"
         d="m 126.63057,228.38314 -21.54464,1.84263 21.59189,-2.69308 z"
         style="fill:#1488ff;fill-opacity:1;stroke:#00468e;stroke-width:0.26458332px;stroke-linecap:butt;stroke-linejoin:miter;stroke-opacity:1" />
      <path
         sodipodi:nodetypes="cccc"
         inkscape:connector-curvature="0"
         id="path4534-7-5"
         d="m 126.86687,226.30437 -21.54464,1.84263 21.59189,-2.69308 z"
         style="fill:#1488ff;fill-opacity:1;stroke:#00468e;stroke-width:0.26458332px;stroke-linecap:butt;stroke-linejoin:miter;stroke-opacity:1" />
      <path
         sodipodi:nodetypes="cccc"
         inkscape:connector-curvature="0"
         id="path4534-7-3"
         d="m 127.15036,224.50899 -21.78089,1.5119 21.82814,-2.36235 z"
         style="fill:#1488ff;fill-opacity:1;stroke:#00468e;stroke-width:0.26458332px;stroke-linecap:butt;stroke-linejoin:miter;stroke-opacity:1" />
      <path
         sodipodi:nodetypes="cccc"
         inkscape:connector-curvature="0"
         id="path4534-7-56"
         d="m 127.2921,222.6191 -21.92262,1.5119 21.96987,-2.36235 z"
         style="fill:#1488ff;fill-opacity:1;stroke:#00468e;stroke-width:0.26458332px;stroke-linecap:butt;stroke-linejoin:miter;stroke-opacity:1" />
      <path
         sodipodi:nodetypes="cccc"
         inkscape:connector-curvature="0"
         id="path4534-7-2"
         d="m 127.43384,220.63473 -21.96986,1.41741 22.01711,-2.26786 z"
         style="fill:#1488ff;fill-opacity:1;stroke:#00468e;stroke-width:0.26458332px;stroke-linecap:butt;stroke-linejoin:miter;stroke-opacity:1" />
      <path
         sodipodi:nodetypes="cccc"
         inkscape:connector-curvature="0"
         id="path4534-7-9"
         d="m 127.48108,218.74485 -22.1116,1.27567 22.15885,-2.12612 z"
         style="fill:#1488ff;fill-opacity:1;stroke:#00468e;stroke-width:0.26458332px;stroke-linecap:butt;stroke-linejoin:miter;stroke-opacity:1" />
      <path
         sodipodi:nodetypes="cccc"
         inkscape:connector-curvature="0"
         id="path4534-7-1"
         d="m 127.85907,216.76047 -22.3951,1.22842 22.44235,-2.07887 z"
         style="fill:#1488ff;fill-opacity:1;stroke:#00468e;stroke-width:0.26458332px;stroke-linecap:butt;stroke-linejoin:miter;stroke-opacity:1" />
      <path
         sodipodi:nodetypes="cccc"
         inkscape:connector-curvature="0"
         id="path4534-7-27"
         d="m 127.9063,214.63436 -22.44233,1.37016 22.48958,-2.22061 z"
         style="fill:#1488ff;fill-opacity:1;stroke:#00468e;stroke-width:0.26458332px;stroke-linecap:butt;stroke-linejoin:miter;stroke-opacity:1" />
      <path
         sodipodi:nodetypes="cccc"
         inkscape:connector-curvature="0"
         id="path4534-7-0"
         d="m 128.0953,212.83897 -22.63132,1.08668 22.67857,-1.93713 z"
         style="fill:#1488ff;fill-opacity:1;stroke:#00468e;stroke-width:0.26458332px;stroke-linecap:butt;stroke-linejoin:miter;stroke-opacity:1" />
      <path
         sodipodi:nodetypes="cccc"
         inkscape:connector-curvature="0"
         id="path4534-7-93"
         d="m 128.23704,210.66561 -22.77306,1.27567 22.82031,-2.12612 z"
         style="fill:#1488ff;fill-opacity:1;stroke:#00468e;stroke-width:0.26458332px;stroke-linecap:butt;stroke-linejoin:miter;stroke-opacity:1" />
      <path
         sodipodi:nodetypes="cccc"
         inkscape:connector-curvature="0"
         id="path4534-7-6"
         d="m 128.33153,208.72848 -23.0093,1.18117 23.05655,-2.03162 z"
         style="fill:#1488ff;fill-opacity:1;stroke:#00468e;stroke-width:0.26458332px;stroke-linecap:butt;stroke-linejoin:miter;stroke-opacity:1" />
      <path
         sodipodi:nodetypes="cccc"
         inkscape:connector-curvature="0"
         id="path4534-7-06"
         d="m 128.56776,206.88584 -23.15104,0.99218 23.19829,-1.84263 z"
         style="fill:#1488ff;fill-opacity:1;stroke:#00468e;stroke-width:0.26458332px;stroke-linecap:butt;stroke-linejoin:miter;stroke-opacity:1" />
      <path
         sodipodi:nodetypes="cccc"
         inkscape:connector-curvature="0"
         id="path4534-7-26"
         d="m 128.75675,204.90147 -23.29278,1.08668 23.34003,-1.93713 z"
         style="fill:#1488ff;fill-opacity:1;stroke:#00468e;stroke-width:0.26458332px;stroke-linecap:butt;stroke-linejoin:miter;stroke-opacity:1" />
      <path
         sodipodi:nodetypes="cccc"
         inkscape:connector-curvature="0"
         id="path4534-7-18"
         d="m 128.85125,202.96434 -23.48177,0.85044 23.52902,-1.70089 z"
         style="fill:#1488ff;fill-opacity:1;stroke:#00468e;stroke-width:0.26458332px;stroke-linecap:butt;stroke-linejoin:miter;stroke-opacity:1" />
      <path
         sodipodi:nodetypes="cccc"
         inkscape:connector-curvature="0"
         id="path4534-7-7"
         d="m 129.04024,201.07446 -23.57626,0.75595 23.62351,-1.6064 z"
         style="fill:#1488ff;fill-opacity:1;stroke:#00468e;stroke-width:0.26458332px;stroke-linecap:butt;stroke-linejoin:miter;stroke-opacity:1" />
      <path
         sodipodi:nodetypes="cccc"
         inkscape:connector-curvature="0"
         id="path4534-7-92"
         d="m 129.13473,198.99559 -23.67076,0.75595 23.71801,-1.6064 z"
         style="fill:#1488ff;fill-opacity:1;stroke:#00468e;stroke-width:0.26458332px;stroke-linecap:butt;stroke-linejoin:miter;stroke-opacity:1" />
      <path
         sodipodi:nodetypes="cccc"
         inkscape:connector-curvature="0"
         id="path4534-7-02"
         d="m 129.22922,197.15296 -23.76525,0.56696 23.8125,-1.41741 z"
         style="fill:#1488ff;fill-opacity:1;stroke:#00468e;stroke-width:0.26458332px;stroke-linecap:butt;stroke-linejoin:miter;stroke-opacity:1" />
      <path
         sodipodi:nodetypes="cccc"
         inkscape:connector-curvature="0"
         id="path4534-7-37"
         d="m 129.27648,195.31032 -23.85974,0.42522 23.90699,-1.27567 z"
         style="fill:#1488ff;fill-opacity:1;stroke:#00468e;stroke-width:0.26458332px;stroke-linecap:butt;stroke-linejoin:miter;stroke-opacity:1" />
      <path
         sodipodi:nodetypes="cccc"
         inkscape:connector-curvature="0"
         id="path4534-7-59"
         d="m 129.6072,193.23146 -24.23772,0.56696 24.28497,-1.41741 z"
         style="fill:#1488ff;fill-opacity:1;stroke:#00468e;stroke-width:0.26458332px;stroke-linecap:butt;stroke-linejoin:miter;stroke-opacity:1" />
      <path
         sodipodi:nodetypes="cccc"
         inkscape:connector-curvature="0"
         id="path4534-7-22"
         d="m 129.65445,191.38882 -24.23772,0.28348 24.28497,-1.13393 z"
         style="fill:#1488ff;fill-opacity:1;stroke:#00468e;stroke-width:0.26458332px;stroke-linecap:butt;stroke-linejoin:miter;stroke-opacity:1" />
      <path
         sodipodi:nodetypes="cccc"
         inkscape:connector-curvature="0"
         id="path4534-7-8"
         d="m 129.79619,189.4517 -24.42671,0.18898 24.47396,-1.03943 z"
         style="fill:#1488ff;fill-opacity:1;stroke:#00468e;stroke-width:0.26458332px;stroke-linecap:butt;stroke-linejoin:miter;stroke-opacity:1" />
      <path
         sodipodi:nodetypes="cccc"
         inkscape:connector-curvature="0"
         id="path4534-7-97"
         d="m 129.84344,187.60905 h -24.5212 l 24.56845,-0.85045 z"
         style="fill:#1488ff;fill-opacity:1;stroke:#00468e;stroke-width:0.26458332px;stroke-linecap:butt;stroke-linejoin:miter;stroke-opacity:1" />
      <path
         sodipodi:nodetypes="cccc"
         inkscape:connector-curvature="0"
         id="path4534-7-36"
         d="m 129.93793,185.67193 -24.71019,-0.0472 24.75744,-0.8032 z"
         style="fill:#1488ff;fill-opacity:1;stroke:#00468e;stroke-width:0.26458332px;stroke-linecap:butt;stroke-linejoin:miter;stroke-opacity:1" />
      <path
         sodipodi:nodetypes="cccc"
         inkscape:connector-curvature="0"
         id="path4534-7-12"
         d="m 129.98518,183.64031 -24.66294,-0.0945 24.71019,-0.75595 z"
         style="fill:#1488ff;fill-opacity:1;stroke:#00468e;stroke-width:0.26458332px;stroke-linecap:butt;stroke-linejoin:miter;stroke-opacity:1" />
      <path
         sodipodi:nodetypes="cccc"
         inkscape:connector-curvature="0"
         id="path4534-7-931"
         d="m 129.98518,181.70317 -24.66294,-0.14175 24.71019,-0.7087 z"
         style="fill:#1488ff;fill-opacity:1;stroke:#00468e;stroke-width:0.26458332px;stroke-linecap:butt;stroke-linejoin:miter;stroke-opacity:1" />
      <path
         sodipodi:nodetypes="cccc"
         inkscape:connector-curvature="0"
         id="path4534-7-94"
         d="m 130.07967,179.8133 -24.71019,-0.28349 24.75744,-0.56696 z"
         style="fill:#1488ff;fill-opacity:1;stroke:#00468e;stroke-width:0.26458332px;stroke-linecap:butt;stroke-linejoin:miter;stroke-opacity:1" />
      <path
         sodipodi:nodetypes="cccc"
         inkscape:connector-curvature="0"
         id="path4534-7-78"
         d="m 130.12692,177.97066 -24.66294,-0.33073 24.71019,-0.51972 z"
         style="fill:#1488ff;fill-opacity:1;stroke:#00468e;stroke-width:0.26458332px;stroke-linecap:butt;stroke-linejoin:miter;stroke-opacity:1" />
      <path
         sodipodi:nodetypes="cccc"
         inkscape:connector-curvature="0"
         id="path4534-7-4"
         d="m 130.26866,175.84455 -24.80468,-0.18899 24.85193,-0.66146 z"
         style="fill:#1488ff;fill-opacity:1;stroke:#00468e;stroke-width:0.26458332px;stroke-linecap:butt;stroke-linejoin:miter;stroke-opacity:1" />
      <path
         sodipodi:nodetypes="cccc"
         inkscape:connector-curvature="0"
         id="path4534-7-50"
         d="m 130.36315,174.00191 -24.94643,-0.37798 24.99368,-0.47247 z"
         style="fill:#1488ff;fill-opacity:1;stroke:#00468e;stroke-width:0.26458332px;stroke-linecap:butt;stroke-linejoin:miter;stroke-opacity:1" />
      <path
         sodipodi:nodetypes="cccc"
         inkscape:connector-curvature="0"
         id="path4534-7-361"
         d="m 130.36315,172.11204 -24.94643,-0.42523 24.99368,-0.42522 z"
         style="fill:#1488ff;fill-opacity:1;stroke:#00468e;stroke-width:0.26458332px;stroke-linecap:butt;stroke-linejoin:miter;stroke-opacity:1" />
      <path
         sodipodi:nodetypes="cccc"
         inkscape:connector-curvature="0"
         id="path4534-7-063"
         d="m 130.45765,170.31665 -25.04092,-0.56697 25.08817,-0.28348 z"
         style="fill:#1488ff;fill-opacity:1;stroke:#00468e;stroke-width:0.26458332px;stroke-linecap:butt;stroke-linejoin:miter;stroke-opacity:1" />
      <path
         sodipodi:nodetypes="cccc"
         inkscape:connector-curvature="0"
         id="path4534-7-20"
         d="m 130.5049,168.37952 -25.08817,-0.75596 25.13542,-0.0945 z"
         style="fill:#1488ff;fill-opacity:1;stroke:#00468e;stroke-width:0.26458332px;stroke-linecap:butt;stroke-linejoin:miter;stroke-opacity:1" />
      <path
         sodipodi:nodetypes="cccc"
         inkscape:connector-curvature="0"
         id="path4534-7-61"
         d="m 130.59939,166.53688 -25.08817,-0.8977 25.13542,0.0472 z"
         style="fill:#1488ff;fill-opacity:1;stroke:#00468e;stroke-width:0.26458332px;stroke-linecap:butt;stroke-linejoin:miter;stroke-opacity:1" />
      <path
         sodipodi:nodetypes="cccc"
         inkscape:connector-curvature="0"
         id="path4534-7-55"
         d="m 130.69389,164.64701 -25.3244,-0.8977 25.37165,0.0472 z"
         style="fill:#1488ff;fill-opacity:1;stroke:#00468e;stroke-width:0.26458332px;stroke-linecap:butt;stroke-linejoin:miter;stroke-opacity:1" />
      <path
         sodipodi:nodetypes="cccc"
         inkscape:connector-curvature="0"
         id="path4534-7-47"
         d="m 130.78838,162.56814 -25.41891,-0.94494 25.46616,0.0945 z"
         style="fill:#1488ff;fill-opacity:1;stroke:#00468e;stroke-width:0.26458332px;stroke-linecap:butt;stroke-linejoin:miter;stroke-opacity:1" />
      <path
         sodipodi:nodetypes="cccc"
         inkscape:connector-curvature="0"
         id="path4534-7-65"
         d="m 130.88287,160.67826 -25.4189,-1.03944 25.46615,0.18899 z"
         style="fill:#1488ff;fill-opacity:1;stroke:#00468e;stroke-width:0.26458332px;stroke-linecap:butt;stroke-linejoin:miter;stroke-opacity:1" />
      <path
         sodipodi:nodetypes="cccc"
         inkscape:connector-curvature="0"
         id="path4534-7-69"
         d="m 130.88287,158.78837 -25.46614,-1.03944 25.51339,0.18899 z"
         style="fill:#1488ff;fill-opacity:1;stroke:#00468e;stroke-width:0.26458332px;stroke-linecap:butt;stroke-linejoin:miter;stroke-opacity:1" />
      <path
         sodipodi:nodetypes="cccc"
         inkscape:connector-curvature="0"
         id="path4534-7-374"
         d="m 130.93012,156.94573 -25.51339,-1.32292 25.56064,0.47247 z"
         style="fill:#1488ff;fill-opacity:1;stroke:#00468e;stroke-width:0.26458332px;stroke-linecap:butt;stroke-linejoin:miter;stroke-opacity:1" />
      <path
         sodipodi:nodetypes="cccc"
         inkscape:connector-curvature="0"
         id="path4534-7-52"
         d="m 130.97736,155.05586 -25.65513,-1.27567 25.70238,0.42522 z"
         style="fill:#1488ff;fill-opacity:1;stroke:#00468e;stroke-width:0.26458332px;stroke-linecap:butt;stroke-linejoin:miter;stroke-opacity:1" />
      <path
         sodipodi:nodetypes="cccc"
         inkscape:connector-curvature="0"
         id="path4534-7-54"
         d="m 131.2136,153.11873 -26.08035,-1.27567 26.1276,0.42522 z"
         style="fill:#1488ff;fill-opacity:1;stroke:#00468e;stroke-width:0.26458332px;stroke-linecap:butt;stroke-linejoin:miter;stroke-opacity:1" />
      <path
         sodipodi:nodetypes="cccc"
         inkscape:connector-curvature="0"
         id="path4534-7-74"
         d="m 131.11911,151.1816 -25.84412,-1.32292 25.89137,0.47247 z"
         style="fill:#1488ff;fill-opacity:1;stroke:#00468e;stroke-width:0.26458332px;stroke-linecap:butt;stroke-linejoin:miter;stroke-opacity:1" />
      <path
         sodipodi:nodetypes="cccc"
         inkscape:connector-curvature="0"
         id="path4534-7-43"
         d="m 131.16636,149.33897 -25.84412,-1.32292 25.89137,0.47247 z"
         style="fill:#1488ff;fill-opacity:1;stroke:#00468e;stroke-width:0.26458332px;stroke-linecap:butt;stroke-linejoin:miter;stroke-opacity:1" />
      <path
         sodipodi:nodetypes="cscscc"
         inkscape:connector-curvature="0"
         id="path4534-7-43-0"
         d="m 131.42199,147.50713 c -4.74309,-0.29916 -12.31098,-0.47991 -17.93088,-0.70492 -4.58731,-0.18366 -7.91596,-0.22355 -8.00773,-0.73612 0.48391,-0.42867 6.51163,-0.0505 8.02784,-0.009 5.67122,0.15664 11.53206,0.31945 17.79266,0.4338 z"
         style="fill:#1488ff;fill-opacity:1;stroke:#00468e;stroke-width:0.26458332px;stroke-linecap:butt;stroke-linejoin:miter;stroke-opacity:1" />
      <path
         sodipodi:nodetypes="cscscc"
         inkscape:connector-curvature="0"
         id="path4534-7-43-0-7"
         d="m 131.31991,144.78389 c -4.74309,-0.29916 -12.31098,-0.47991 -17.93088,-0.70492 -4.58731,-0.18366 -7.91596,-0.22355 -8.00773,-0.73612 0.48391,-0.42867 6.51163,-0.0505 8.02784,-0.009 5.67122,0.15664 11.53206,0.31945 17.79266,0.4338 z"
         style="fill:#1488ff;fill-opacity:1;stroke:#00468e;stroke-width:0.26458332px;stroke-linecap:butt;stroke-linejoin:miter;stroke-opacity:1" />
      <path
         sodipodi:nodetypes="cscscc"
         inkscape:connector-curvature="0"
         id="path4534-7-43-0-7-8"
         d="m 131.59123,142.17107 c -4.73862,-0.36309 -12.30339,-0.64586 -17.91974,-0.94662 -4.58441,-0.2455 -7.91222,-0.33027 -7.99708,-0.84403 0.48966,-0.4221 6.51173,0.0371 8.02724,0.0992 5.66859,0.23309 11.5267,0.47491 17.78519,0.67366 z"
         style="fill:#1488ff;fill-opacity:1;stroke:#00468e;stroke-width:0.26458332px;stroke-linecap:butt;stroke-linejoin:miter;stroke-opacity:1" />
      <path
         sodipodi:nodetypes="cscscc"
         inkscape:connector-curvature="0"
         id="path4534-7-43-0-7-6"
         d="m 131.44734,139.50523 c -4.73785,-0.37305 -12.302,-0.67173 -17.91771,-0.9843 -4.58389,-0.25514 -7.91152,-0.3469 -7.99529,-0.86084 0.49053,-0.42108 6.51163,0.051 8.02701,0.11612 5.66809,0.24501 11.52568,0.49915 17.78373,0.71106 z"
         style="fill:#1488ff;fill-opacity:1;stroke:#00468e;stroke-width:0.26458332px;stroke-linecap:butt;stroke-linejoin:miter;stroke-opacity:1" />
      <path
         sodipodi:nodetypes="cscscc"
         inkscape:connector-curvature="0"
         id="path4534-7-43-0-7-88"
         d="m 131.34799,136.7305 c -4.73607,-0.39503 -12.29875,-0.72882 -17.91295,-1.06745 -4.58266,-0.27641 -7.90982,-0.38362 -7.9912,-0.89794 0.49248,-0.41879 6.51132,0.0812 8.02638,0.15338 5.66689,0.27131 11.52324,0.55263 17.78024,0.79359 z"
         style="fill:#1488ff;fill-opacity:1;stroke:#00468e;stroke-width:0.26458332px;stroke-linecap:butt;stroke-linejoin:miter;stroke-opacity:1" />
      <path
         sodipodi:nodetypes="cscscc"
         inkscape:connector-curvature="0"
         id="path4534-7-43-0-7-4"
         d="m 131.39147,134.03445 c -4.73469,-0.41123 -12.29619,-0.77087 -17.9092,-1.1287 -4.58169,-0.29208 -7.90846,-0.41066 -7.98809,-0.92526 0.49391,-0.41711 6.51101,0.10348 8.02581,0.18082 5.66593,0.29069 11.52128,0.59204 17.77743,0.85439 z"
         style="fill:#1488ff;fill-opacity:1;stroke:#00468e;stroke-width:0.26458332px;stroke-linecap:butt;stroke-linejoin:miter;stroke-opacity:1" />
      <path
         sodipodi:nodetypes="cscscc"
         inkscape:connector-curvature="0"
         id="path4534-7-43-0-7-3"
         d="m 131.43466,131.24536 c -4.73321,-0.42796 -12.29339,-0.81433 -17.9051,-1.192 -4.58063,-0.30827 -7.90696,-0.43861 -7.98477,-0.95348 0.49538,-0.41536 6.5106,0.12649 8.02512,0.20919 5.66487,0.31071 11.51912,0.63275 17.7743,0.91721 z"
         style="fill:#1488ff;fill-opacity:1;stroke:#00468e;stroke-width:0.26458332px;stroke-linecap:butt;stroke-linejoin:miter;stroke-opacity:1" />
      <path
         sodipodi:nodetypes="cscscc"
         inkscape:connector-curvature="0"
         id="path4534-7-43-0-7-1"
         d="m 131.52034,128.50712 c -4.72988,-0.46326 -12.28697,-0.90604 -17.8957,-1.32558 -4.5782,-0.34245 -7.90347,-0.49761 -7.97743,-1.01306 0.49847,-0.41164 6.50948,0.1751 8.02333,0.26907 5.6624,0.353 11.51408,0.71871 17.76696,1.04985 z"
         style="fill:#1488ff;fill-opacity:1;stroke:#00468e;stroke-width:0.26458332px;stroke-linecap:butt;stroke-linejoin:miter;stroke-opacity:1" />
      <path
         sodipodi:nodetypes="cscscc"
         inkscape:connector-curvature="0"
         id="path4534-7-43-0-7-49"
         d="m 131.42393,125.69069 c -4.72921,-0.47 -12.28566,-0.92354 -17.89378,-1.35106 -4.57771,-0.34897 -7.90276,-0.50886 -7.97598,-1.02441 0.49905,-0.41095 6.50921,0.18435 8.02294,0.2805 5.66188,0.36105 11.51304,0.7351 17.76544,1.07515 z"
         style="fill:#1488ff;fill-opacity:1;stroke:#00468e;stroke-width:0.26458332px;stroke-linecap:butt;stroke-linejoin:miter;stroke-opacity:1" />
      <path
         sodipodi:nodetypes="cscscc"
         inkscape:connector-curvature="0"
         id="path4534-7-43-0-7-2"
         d="m 131.51454,123.03447 c -4.72786,-0.4835 -12.28298,-0.95859 -17.88987,-1.40211 -4.57669,-0.36203 -7.90127,-0.53141 -7.97302,-1.04716 0.50022,-0.40952 6.50866,0.20292 8.02211,0.30338 5.66083,0.3772 11.51089,0.76795 17.7623,1.12582 z"
         style="fill:#1488ff;fill-opacity:1;stroke:#00468e;stroke-width:0.26458332px;stroke-linecap:butt;stroke-linejoin:miter;stroke-opacity:1" />
      <path
         sodipodi:nodetypes="cscscc"
         inkscape:connector-curvature="0"
         id="path4534-7-43-0-7-0"
         d="m 131.6458,120.34965 c -4.72387,-0.52106 -12.27498,-1.0562 -17.87818,-1.54427 -4.57366,-0.39839 -7.89678,-0.5942 -7.96443,-1.11051 0.50346,-0.40552 6.50684,0.25465 8.01943,0.36715 5.65767,0.42219 11.50445,0.85942 17.75281,1.26697 z"
         style="fill:#1488ff;fill-opacity:1;stroke:#00468e;stroke-width:0.26458332px;stroke-linecap:butt;stroke-linejoin:miter;stroke-opacity:1" />
      <path
         sodipodi:nodetypes="cscscc"
         inkscape:connector-curvature="0"
         id="path4534-7-43-0-7-68"
         d="m 131.52348,117.89121 c -4.71361,-0.60688 -12.25373,-1.27924 -17.84712,-1.86913 -4.56567,-0.48149 -7.88468,-0.73769 -7.94294,-1.25515 0.51076,-0.3963 6.50114,0.37294 8.01145,0.51292 5.64904,0.525 11.48689,1.06848 17.72682,1.58959 z"
         style="fill:#1488ff;fill-opacity:1;stroke:#00468e;stroke-width:0.26458332px;stroke-linecap:butt;stroke-linejoin:miter;stroke-opacity:1" />
      <path
         sodipodi:nodetypes="cscscc"
         inkscape:connector-curvature="0"
         id="path4534-7-43-0-7-9"
         d="m 131.70581,115.19692 c -4.7114,-0.62376 -12.24907,-1.32313 -17.84031,-1.93305 -4.56391,-0.49785 -7.88198,-0.76595 -7.93838,-1.2836 0.51217,-0.39448 6.49976,0.39622 8.00955,0.54161 5.64712,0.54523 11.483,1.10963 17.72101,1.65309 z"
         style="fill:#1488ff;fill-opacity:1;stroke:#00468e;stroke-width:0.26458332px;stroke-linecap:butt;stroke-linejoin:miter;stroke-opacity:1" />
      <path
         sodipodi:nodetypes="cscscc"
         inkscape:connector-curvature="0"
         id="path4534-7-43-0-7-26"
         d="m 131.46674,112.38942 c -4.71008,-0.6337 -12.24626,-1.34897 -17.83619,-1.97068 -4.56285,-0.50747 -7.88036,-0.78257 -7.93567,-1.30033 0.51301,-0.39339 6.49892,0.40992 8.0084,0.55849 5.64597,0.55715 11.48063,1.13385 17.71749,1.69047 z"
         style="fill:#1488ff;fill-opacity:1;stroke:#00468e;stroke-width:0.26458332px;stroke-linecap:butt;stroke-linejoin:miter;stroke-opacity:1" />
      <path
         sodipodi:nodetypes="cscscc"
         inkscape:connector-curvature="0"
         id="path4534-7-43-0-7-64"
         d="m 131.69952,109.72571 c -4.70863,-0.64441 -12.24316,-1.37682 -17.83167,-2.01124 -4.56168,-0.51786 -7.87854,-0.80048 -7.93267,-1.31838 0.5139,-0.39222 6.49795,0.42471 8.0071,0.57671 5.64468,0.56998 11.47801,1.15995 17.71359,1.73075 z"
         style="fill:#1488ff;fill-opacity:1;stroke:#00468e;stroke-width:0.26458332px;stroke-linecap:butt;stroke-linejoin:miter;stroke-opacity:1" />
      <path
         sodipodi:nodetypes="cscscc"
         inkscape:connector-curvature="0"
         id="path4534-7-43-0-7-95"
         d="m 131.70456,106.98996 c -4.71073,-0.62885 -12.24764,-1.33636 -17.83822,-1.95232 -4.56336,-0.50278 -7.88115,-0.77445 -7.93699,-1.29217 0.5126,-0.39392 6.49933,0.40323 8.00897,0.55026 5.64653,0.55133 11.48178,1.12203 17.71921,1.67223 z"
         style="fill:#1488ff;fill-opacity:1;stroke:#00468e;stroke-width:0.26458332px;stroke-linecap:butt;stroke-linejoin:miter;stroke-opacity:1" />
      <path
         sodipodi:nodetypes="cscscc"
         inkscape:connector-curvature="0"
         id="path4534-7-43-0-7-04"
         d="m 131.78695,104.29133 c -4.70626,-0.66139 -12.23811,-1.42095 -17.82429,-2.07552 -4.5598,-0.53429 -7.87562,-0.82888 -7.92789,-1.34697 0.51532,-0.39037 6.49639,0.44813 8.00498,0.60558 5.64258,0.59032 11.47376,1.20132 17.70724,1.79461 z"
         style="fill:#1488ff;fill-opacity:1;stroke:#00468e;stroke-width:0.26458332px;stroke-linecap:butt;stroke-linejoin:miter;stroke-opacity:1" />
      <path
         sodipodi:nodetypes="cscscc"
         inkscape:connector-curvature="0"
         id="path4534-7-43-0-7-87"
         d="m 131.80834,101.82464 c -4.69661,-0.72687 -12.21714,-1.59127 -17.79366,-2.323578 -4.55191,-0.597758 -7.86331,-0.938507 -7.90835,-1.457275 0.52069,-0.383147 6.48952,0.538576 7.99576,0.717022 5.63381,0.668864 11.45592,1.361021 17.68052,2.041081 z"
         style="fill:#1488ff;fill-opacity:1;stroke:#00468e;stroke-width:0.26458332px;stroke-linecap:butt;stroke-linejoin:miter;stroke-opacity:1" />
      <path
         sodipodi:nodetypes="cscscc"
         inkscape:connector-curvature="0"
         id="path4534-7-43-0-7-17"
         d="m 131.90577,99.056875 c -4.69813,-0.716923 -12.22047,-1.565398 -17.79854,-2.285904 -4.55316,-0.588115 -7.86527,-0.921851 -7.91141,-1.440523 0.51988,-0.384254 6.49064,0.524835 7.99726,0.700091 5.63522,0.656937 11.45877,1.336767 17.6848,2.003636 z"
         style="fill:#1488ff;fill-opacity:1;stroke:#00468e;stroke-width:0.26458332px;stroke-linecap:butt;stroke-linejoin:miter;stroke-opacity:1" />
      <path
         sodipodi:nodetypes="cscscc"
         inkscape:connector-curvature="0"
         id="path4534-7-43-0-7-27"
         d="m 131.94524,96.41945 c -4.69499,-0.737221 -12.2136,-1.618198 -17.7885,-2.362805 -4.55058,-0.607788 -7.86122,-0.955836 -7.90512,-1.474702 0.52154,-0.382003 6.48831,0.552882 7.99416,0.734648 5.63233,0.681284 11.45289,1.386278 17.67599,2.080047 z"
         style="fill:#1488ff;fill-opacity:1;stroke:#00468e;stroke-width:0.26458332px;stroke-linecap:butt;stroke-linejoin:miter;stroke-opacity:1" />
      <path
         sodipodi:nodetypes="cscscc"
         inkscape:connector-curvature="0"
         id="path4534-7-43-0-7-22"
         d="m 131.98239,93.926284 c -4.69158,-0.758561 -12.20611,-1.673715 -17.77756,-2.443662 -4.54777,-0.628472 -7.85679,-0.991569 -7.89833,-1.51063 0.52327,-0.379628 6.48573,0.582377 7.99073,0.770988 5.62918,0.706887 11.44647,1.438338 17.66635,2.160396 z"
         style="fill:#1488ff;fill-opacity:1;stroke:#00468e;stroke-width:0.26458332px;stroke-linecap:butt;stroke-linejoin:miter;stroke-opacity:1" />
      <path
         sodipodi:nodetypes="cscscc"
         inkscape:connector-curvature="0"
         id="path4534-7-43-0-7-61"
         d="m 131.99841,91.423058 c -4.67984,-0.827937 -12.18,-1.854248 -17.73944,-2.706599 -4.53796,-0.695735 -7.84125,-1.107783 -7.87509,-1.627402 0.52883,-0.371839 6.47639,0.678337 7.97845,0.889209 5.61809,0.790152 11.42391,1.607652 17.63242,2.421718 z"
         style="fill:#1488ff;fill-opacity:1;stroke:#00468e;stroke-width:0.26458332px;stroke-linecap:butt;stroke-linejoin:miter;stroke-opacity:1" />
      <path
         sodipodi:nodetypes="cscscc"
         inkscape:connector-curvature="0"
         id="path4534-7-43-0-7-06"
         d="m 131.88095,88.683964 c -4.68078,-0.822642 -12.18209,-1.840464 -17.74249,-2.686524 -4.53874,-0.690599 -7.8425,-1.098909 -7.87694,-1.618489 0.52841,-0.372437 6.47717,0.671008 7.97945,0.880181 5.61898,0.783794 11.42573,1.594722 17.63515,2.401763 z"
         style="fill:#1488ff;fill-opacity:1;stroke:#00468e;stroke-width:0.26458332px;stroke-linecap:butt;stroke-linejoin:miter;stroke-opacity:1" />
      <path
         sodipodi:nodetypes="cscscc"
         inkscape:connector-curvature="0"
         id="path4534-7-43-0-7-15"
         d="m 131.93243,86.189286 c -4.67288,-0.866373 -12.16434,-1.954289 -17.71659,-2.852303 -4.53209,-0.733008 -7.83188,-1.172191 -7.86146,-1.692071 0.53187,-0.36748 6.47061,0.731542 7.97087,0.954753 5.61141,0.836298 11.41032,1.701485 17.61192,2.566551 z"
         style="fill:#1488ff;fill-opacity:1;stroke:#00468e;stroke-width:0.26458332px;stroke-linecap:butt;stroke-linejoin:miter;stroke-opacity:1" />
      <path
         sodipodi:nodetypes="cscscc"
         inkscape:connector-curvature="0"
         id="path4534-7-43-0-7-94"
         d="m 132.02333,83.583146 c -4.67964,-0.829047 -12.17955,-1.857133 -17.7388,-2.710802 -4.5378,-0.696809 -7.84099,-1.10964 -7.87472,-1.629267 0.52892,-0.371714 6.47624,0.679871 7.97824,0.8911 5.61791,0.791483 11.42355,1.610356 17.63185,2.425894 z"
         style="fill:#1488ff;fill-opacity:1;stroke:#00468e;stroke-width:0.26458332px;stroke-linecap:butt;stroke-linejoin:miter;stroke-opacity:1" />
      <path
         sodipodi:nodetypes="cscscc"
         inkscape:connector-curvature="0"
         id="path4534-7-43-0-7-90"
         d="m 131.79509,81.023863 c -4.67483,-0.855823 -12.16872,-1.92683 -17.72298,-2.81231 -4.53374,-0.722777 -7.83451,-1.154512 -7.86527,-1.674323 0.53104,-0.36868 6.47225,0.716936 7.97301,0.93676 5.61328,0.823632 11.41413,1.675729 17.61766,2.526795 z"
         style="fill:#1488ff;fill-opacity:1;stroke:#00468e;stroke-width:0.26458332px;stroke-linecap:butt;stroke-linejoin:miter;stroke-opacity:1" />
      <path
         sodipodi:nodetypes="cscscc"
         inkscape:connector-curvature="0"
         id="path4534-7-43-0-7-91"
         d="m 131.95709,78.249426 c -4.68232,-0.813758 -12.18555,-1.817344 -17.74755,-2.652851 -4.54005,-0.681985 -7.84457,-1.084026 -7.87999,-1.60354 0.5277,-0.373439 6.47842,0.658716 7.9811,0.865038 5.62046,0.77313 11.42874,1.573038 17.63967,2.368295 z"
         style="fill:#1488ff;fill-opacity:1;stroke:#00468e;stroke-width:0.26458332px;stroke-linecap:butt;stroke-linejoin:miter;stroke-opacity:1" />
      <path
         sodipodi:nodetypes="cscscc"
         inkscape:connector-curvature="0"
         id="path4534-7-43-0-7-7"
         d="m 129.05206,75.42526 c -5.73528,-1.149606 -8.34223,-1.235862 -13.91488,-2.311319 -4.50781,-0.869954 -8.8609,-1.310231 -8.95267,-1.822801 0.48391,-0.42867 5.43495,0.331941 9.30351,1.030434 6.04154,1.090841 6.66561,1.028156 13.44593,2.087446 z"
         style="fill:#1488ff;fill-opacity:1;stroke:#00468e;stroke-width:0.26458332px;stroke-linecap:butt;stroke-linejoin:miter;stroke-opacity:1" />
      <path
         sodipodi:nodetypes="cccccccssssscccccssssc"
         inkscape:connector-curvature="0"
         id="path3727-7"
         d="m 127.35524,71.719709 c -6.34765,-1.492255 -12.8806,-2.516789 -18.8425,-3.34087 -0.0232,0.09282 -2.07583,-0.04885 -1.87089,-1.336349 -0.22844,-0.734991 1.11795,-1.403164 2.00453,-1.403164 4.05383,-0.450426 16.30343,-10e-7 19.6443,0.334088 2.73951,0.668172 3.60814,0.267268 6.54811,2.806329 2.93996,2.539061 2.80633,5.412208 2.80633,5.412208 0,0 1.80407,21.916108 1.9377,33.408689 0.13364,11.49259 1.00226,25.39061 0.46772,47.84124 -0.53454,22.45065 -1.40316,40.62497 -2.87314,56.99523 -1.46999,16.37026 -1.63299,20.92196 -1.93771,22.71791 -0.27454,1.61809 -1.60361,3.27405 -2.67269,4.34314 -1.06908,1.06908 -3.40769,2.07133 -5.21176,2.40543 -1.80407,0.33407 -16.83798,-0.13366 -20.71339,-1.00226 0,0 -1.33634,-0.20047 -1.26953,-1.53681 -0.20047,-1.33634 2.00452,-1.33634 2.00452,-1.33634 0,0 15.96936,-1.06909 16.83798,-1.80407 1.40317,-0.46772 1.26953,-0.735 1.60362,-1.80408 0.33409,-1.06907 3.54132,-34.47777 4.07586,-52.31801 0.53454,-17.84024 1.25379,-23.64999 1.20272,-39.88998 -0.0668,-21.24792 -1.16346,-44.491791 -1.80407,-58.0643 -0.61443,-13.017804 -0.74906,-11.371457 -1.93771,-12.428031 z"
         style="fill:#1488ff;fill-opacity:1;stroke:#00468e;stroke-width:0.36500001;stroke-linecap:butt;stroke-linejoin:miter;stroke-miterlimit:4;stroke-dasharray:none;stroke-opacity:1" />
    </g>
  </g>
</svg>
